. 
 
http://www.torrenting.com          :     Once & For all ;)


               www . Torrenting . Com 

(((((((((((((= Enjoy No RAR releases =))))))))))))))))))))


...................................NFO:....................................

.                                             
                               
                                 
                                      
                                      
                                       
    CoaX!<CPH>                         
                               
                         
                            
          
    Team FiCO <Final Coalition> 2k8 Presents:    
    

Irreconcilable.Differences.1984.DVDRip.XviD-FiCO 
http://www.imdb.com/title/tt0087482/
Subtitles: EN SP
Date: 2012.01.21

Director: Charles Shyer
Genre: Comedy | Drama | Romance
Plot: Alternating between the past and the present, a precocious little girl 
sues her selfish, career-driven parents for emancipation, surprising them both.

Cast
Cast overview, first billed only:
 	Ryan O'Neal	 ...	
Albert Brodsky
 	Shelley Long	 ...	
Lucy Van Patten Brodsky
 	Drew Barrymore	 ...	
Casey Brodsky
 	Sam Wanamaker	 ...	
David Kessler
 	Allen Garfield	 ...	
Phil Hanner
 	Sharon Stone	 ...	
Blake Chandler (aka Amanda)
 	Kim Marriner	 ...	
Reporter
 	Wendy Gordon	 ...	
Reporter
 	Ken Gale	 ...	
Reporter
 	Deborah Cody	 ...	
Reporter
 	Steven K. Miller	 ...	
Reporter
 	Annie Meyers-Shyer	 ...	
Little Girl in Crowd
 	Lauren Hartman	 ...	
Woman on the Street
 	David Paymer	 ...	
Alan Sluiser
 	Larry Marko	 ...	
Court Clerk
Full cast and crew 

Stats:
General
Format                           : AVI
Format/Info                      : Audio Video Interleave
File size                        : 1.36 GiB
Duration                         : 1h 58mn
Overall bit rate                 : 1 645 Kbps
Writing application              : Nandub v1.0rc2
Writing library                  : Nandub build 1853/release

Video
ID                               : 0
Format                           : MPEG-4 Visual
Format profile                   : Advanced Simple@L5
Format settings, BVOP            : Yes
Format settings, QPel            : No
Format settings, GMC             : No warppoints
Format settings, Matrix          : Default (H.263)
Codec ID                         : XVID
Codec ID/Hint                    : XviD
Duration                         : 1h 58mn
Bit rate                         : 1 206 Kbps
Width                            : 576 pixels
Height                           : 432 pixels
Display aspect ratio             : 4:3
Frame rate                       : 23.976 fps
Resolution                       : 8 bits
Colorimetry                      : 4:2:0
Scan type                        : Progressive
Bits/(Pixel*Frame)               : 0.202
Stream size                      : 1 022 MiB (73%)
Writing library                  : XviD 61

Audio
ID                               : 1
Format                           : AC-3
Format/Info                      : Audio Coding 3
Format_Settings_ModeExtension    : CM (complete main)
Codec ID                         : 2000
Duration                         : 1h 53mn
Bit rate mode                    : Constant
Bit rate                         : 448 Kbps
Channel(s)                       : 6 channels
Channel positions                : Front: L C R, Side: L R, LFE
Sampling rate                    : 48.0 KHz
Stream size                      : 364 MiB (26%)
Alignment                        : Split accross interleaves
Interleave, duration             : 43 ms (1.04 video frame)
Interleave, preload duration     : 500 ms




Release notes:
enjoy!


                                                                     
                                                             
                                                               
                                                               
                       
      
              Greetz from Team FiCO:               
              
                                                             
                                                             
           BLooDWeiSeR,CULTXviD,SiCK,DoNE,LAP,TH30R1STS              
                                                                             
               WinBeta, DvF, WASTE, BERC, KALEVALA, Jiggly                   
                                                                             
                                                             
                                       
                             
                      
                  
           
            
                    
                  
                
                            
                                        
                                        
                                            
                                                    
                                                              
                      you know where to find us...                     
                        
   NFO By: CoaXCable/CoolPHat <#CPH>